<?xml version="1.0" encoding="UTF-8" standalone="no"?>
<!DOCTYPE svg PUBLIC "-//W3C//DTD SVG 1.1//EN"
 "http://www.w3.org/Graphics/SVG/1.1/DTD/svg11.dtd">
<!-- Generated by graphviz version 2.40.1 (20161225.0304)
 -->
<!-- Title: dependencies Pages: 1 -->
<svg width="1599pt" height="290pt"
 viewBox="0.00 0.00 1599.00 290.00" xmlns="http://www.w3.org/2000/svg" xmlns:xlink="http://www.w3.org/1999/xlink">
<g id="graph0" class="graph" transform="scale(1 1) rotate(0) translate(4 286)">
<title>dependencies</title>
<polygon fill="#ffffff" stroke="transparent" points="-4,4 -4,-286 1595,-286 1595,4 -4,4"/>
<text text-anchor="start" x="774.5091" y="-42.4" font-family="sans-serif" font-weight="bold" font-size="14.00" fill="#000000">Legend</text>
<polygon fill="#ffffb3" stroke="transparent" points="561.5,-10 561.5,-30 581.5,-30 581.5,-10 561.5,-10"/>
<text text-anchor="start" x="585.129" y="-15.4" font-family="sans-serif" font-size="14.00" fill="#000000"> &#160;Declarations</text>
<polygon fill="#8dd3c7" stroke="transparent" points="674.5,-10 674.5,-30 694.5,-30 694.5,-10 674.5,-10"/>
<text text-anchor="start" x="698.2251" y="-15.4" font-family="sans-serif" font-size="14.00" fill="#000000"> &#160;Module</text>
<polygon fill="#80b1d3" stroke="transparent" points="760.5,-10 760.5,-30 780.5,-30 780.5,-10 760.5,-10"/>
<text text-anchor="start" x="784.2812" y="-15.4" font-family="sans-serif" font-size="14.00" fill="#000000"> &#160;Bootstrap</text>
<polygon fill="#fdb462" stroke="transparent" points="857.5,-10 857.5,-30 877.5,-30 877.5,-10 857.5,-10"/>
<text text-anchor="start" x="881.1732" y="-15.4" font-family="sans-serif" font-size="14.00" fill="#000000"> &#160;Providers</text>
<polygon fill="#fb8072" stroke="transparent" points="953.5,-10 953.5,-30 973.5,-30 973.5,-10 953.5,-10"/>
<text text-anchor="start" x="977.2258" y="-15.4" font-family="sans-serif" font-size="14.00" fill="#000000"> &#160;Exports</text>
<g id="clust1" class="cluster">
<title>cluster_AppModule</title>
<polygon fill="none" stroke="#000000" stroke-dasharray="1,5" points="8,-70 8,-274 1239,-274 1239,-70 8,-70"/>
</g>
<g id="clust2" class="cluster">
<title>cluster_AppModule_declarations</title>
<polygon fill="none" stroke="#000000" points="168,-78 168,-130 738,-130 738,-78 168,-78"/>
</g>
<g id="clust7" class="cluster">
<title>cluster_AppModule_imports</title>
<polygon fill="none" stroke="#000000" points="746,-78 746,-130 1231,-130 1231,-78 746,-78"/>
</g>
<g id="clust9" class="cluster">
<title>cluster_AppModule_bootstrap</title>
<polygon fill="none" stroke="#000000" points="615,-214 615,-266 739,-266 739,-214 615,-214"/>
</g>
<g id="clust10" class="cluster">
<title>cluster_AppModule_providers</title>
<polygon fill="none" stroke="#000000" points="16,-78 16,-130 160,-130 160,-78 16,-78"/>
</g>
<g id="clust11" class="cluster">
<title>cluster_AppRoutingModule</title>
<polygon fill="none" stroke="#000000" stroke-dasharray="1,5" points="1247,-138 1247,-206 1583,-206 1583,-138 1247,-138"/>
</g>
<g id="clust13" class="cluster">
<title>cluster_AppRoutingModule_imports</title>
<polygon fill="none" stroke="#000000" points="1381,-146 1381,-198 1575,-198 1575,-146 1381,-146"/>
</g>
<g id="clust14" class="cluster">
<title>cluster_AppRoutingModule_exports</title>
<polygon fill="none" stroke="#000000" points="1255,-146 1255,-198 1373,-198 1373,-146 1255,-146"/>
</g>
<!-- AppComponent -->
<g id="node1" class="node">
<title>AppComponent</title>
<polygon fill="#ffffb3" stroke="#000000" points="729.9399,-122 624.0601,-122 624.0601,-86 729.9399,-86 729.9399,-122"/>
<text text-anchor="middle" x="677" y="-99.8" font-family="Times,serif" font-size="14.00" fill="#000000">AppComponent</text>
</g>
<!-- AppModule -->
<g id="node5" class="node">
<title>AppModule</title>
<polygon fill="#8dd3c7" stroke="#000000" points="718.6571,-190 715.6571,-194 694.6571,-194 691.6571,-190 635.3429,-190 635.3429,-154 718.6571,-154 718.6571,-190"/>
<text text-anchor="middle" x="677" y="-167.8" font-family="Times,serif" font-size="14.00" fill="#000000">AppModule</text>
</g>
<!-- AppComponent&#45;&gt;AppModule -->
<g id="edge1" class="edge">
<title>AppComponent&#45;&gt;AppModule</title>
<path fill="none" stroke="#000000" d="M677,-122.2228C677,-122.2228 677,-143.7269 677,-143.7269"/>
<polygon fill="#000000" stroke="#000000" points="673.5001,-143.7269 677,-153.7269 680.5001,-143.727 673.5001,-143.7269"/>
</g>
<!-- PhoneListComponent -->
<g id="node2" class="node">
<title>PhoneListComponent</title>
<polygon fill="#ffffb3" stroke="#000000" points="606.108,-122 467.892,-122 467.892,-86 606.108,-86 606.108,-122"/>
<text text-anchor="middle" x="537" y="-99.8" font-family="Times,serif" font-size="14.00" fill="#000000">PhoneListComponent</text>
</g>
<!-- PhoneListComponent&#45;&gt;AppModule -->
<g id="edge2" class="edge">
<title>PhoneListComponent&#45;&gt;AppModule</title>
<path fill="none" stroke="#000000" d="M537,-122.0336C537,-139.0597 537,-162 537,-162 537,-162 624.9954,-162 624.9954,-162"/>
<polygon fill="#000000" stroke="#000000" points="624.9954,-165.5001 634.9954,-162 624.9953,-158.5001 624.9954,-165.5001"/>
</g>
<!-- PhoneDetailComponent -->
<g id="node3" class="node">
<title>PhoneDetailComponent</title>
<polygon fill="#ffffb3" stroke="#000000" points="450.0379,-122 299.9621,-122 299.9621,-86 450.0379,-86 450.0379,-122"/>
<text text-anchor="middle" x="375" y="-99.8" font-family="Times,serif" font-size="14.00" fill="#000000">PhoneDetailComponent</text>
</g>
<!-- PhoneDetailComponent&#45;&gt;AppModule -->
<g id="edge3" class="edge">
<title>PhoneDetailComponent&#45;&gt;AppModule</title>
<path fill="none" stroke="#000000" d="M375,-122.1061C375,-141.3391 375,-169 375,-169 375,-169 625.3253,-169 625.3253,-169"/>
<polygon fill="#000000" stroke="#000000" points="625.3253,-172.5001 635.3253,-169 625.3252,-165.5001 625.3253,-172.5001"/>
</g>
<!-- CheckmarkPipe -->
<g id="node4" class="node">
<title>CheckmarkPipe</title>
<polygon fill="#ffffb3" stroke="#000000" points="281.9202,-122 176.0798,-122 176.0798,-86 281.9202,-86 281.9202,-122"/>
<text text-anchor="middle" x="229" y="-99.8" font-family="Times,serif" font-size="14.00" fill="#000000">CheckmarkPipe</text>
</g>
<!-- CheckmarkPipe&#45;&gt;AppModule -->
<g id="edge4" class="edge">
<title>CheckmarkPipe&#45;&gt;AppModule</title>
<path fill="none" stroke="#000000" d="M229,-122.1686C229,-143.498 229,-176 229,-176 229,-176 625.2555,-176 625.2555,-176"/>
<polygon fill="#000000" stroke="#000000" points="625.2556,-179.5001 635.2555,-176 625.2555,-172.5001 625.2556,-179.5001"/>
</g>
<!-- AppComponent  -->
<g id="node10" class="node">
<title>AppComponent </title>
<polygon fill="#80b1d3" stroke="#000000" points="731.439,-258 622.561,-258 622.561,-222 731.439,-222 731.439,-258"/>
<text text-anchor="middle" x="677" y="-235.8" font-family="Times,serif" font-size="14.00" fill="#000000">AppComponent </text>
</g>
<!-- AppModule&#45;&gt;AppComponent  -->
<g id="edge9" class="edge">
<title>AppModule&#45;&gt;AppComponent </title>
<path fill="none" stroke="#000000" stroke-dasharray="1,5" d="M677,-190.2228C677,-190.2228 677,-211.7269 677,-211.7269"/>
<polygon fill="#000000" stroke="#000000" points="673.5001,-211.7269 677,-221.7269 680.5001,-211.727 673.5001,-211.7269"/>
</g>
<!-- BrowserModule -->
<g id="node6" class="node">
<title>BrowserModule</title>
<polygon fill="#8dd3c7" stroke="#000000" points="1076.4734,-122 1073.4734,-126 1052.4734,-126 1049.4734,-122 969.5266,-122 969.5266,-86 1076.4734,-86 1076.4734,-122"/>
<text text-anchor="middle" x="1023" y="-99.8" font-family="Times,serif" font-size="14.00" fill="#000000">BrowserModule</text>
</g>
<!-- BrowserModule&#45;&gt;AppModule -->
<g id="edge5" class="edge">
<title>BrowserModule&#45;&gt;AppModule</title>
<path fill="none" stroke="#000000" d="M1023,-122.1686C1023,-143.498 1023,-176 1023,-176 1023,-176 728.7357,-176 728.7357,-176"/>
<polygon fill="#000000" stroke="#000000" points="728.7357,-172.5001 718.7357,-176 728.7356,-179.5001 728.7357,-172.5001"/>
</g>
<!-- FormsModule -->
<g id="node7" class="node">
<title>FormsModule</title>
<polygon fill="#8dd3c7" stroke="#000000" points="951.8288,-122 948.8288,-126 927.8288,-126 924.8288,-122 856.1712,-122 856.1712,-86 951.8288,-86 951.8288,-122"/>
<text text-anchor="middle" x="904" y="-99.8" font-family="Times,serif" font-size="14.00" fill="#000000">FormsModule</text>
</g>
<!-- FormsModule&#45;&gt;AppModule -->
<g id="edge6" class="edge">
<title>FormsModule&#45;&gt;AppModule</title>
<path fill="none" stroke="#000000" d="M904,-122.1061C904,-141.3391 904,-169 904,-169 904,-169 728.8998,-169 728.8998,-169"/>
<polygon fill="#000000" stroke="#000000" points="728.8999,-165.5001 718.8998,-169 728.8998,-172.5001 728.8999,-165.5001"/>
</g>
<!-- HttpModule -->
<g id="node8" class="node">
<title>HttpModule</title>
<polygon fill="#8dd3c7" stroke="#000000" points="838.4387,-122 835.4387,-126 814.4387,-126 811.4387,-122 753.5613,-122 753.5613,-86 838.4387,-86 838.4387,-122"/>
<text text-anchor="middle" x="796" y="-99.8" font-family="Times,serif" font-size="14.00" fill="#000000">HttpModule</text>
</g>
<!-- HttpModule&#45;&gt;AppModule -->
<g id="edge7" class="edge">
<title>HttpModule&#45;&gt;AppModule</title>
<path fill="none" stroke="#000000" d="M796,-122.0336C796,-139.0597 796,-162 796,-162 796,-162 728.9549,-162 728.9549,-162"/>
<polygon fill="#000000" stroke="#000000" points="728.955,-158.5001 718.9549,-162 728.9549,-165.5001 728.955,-158.5001"/>
</g>
<!-- AppRoutingModule -->
<g id="node9" class="node">
<title>AppRoutingModule</title>
<polygon fill="#8dd3c7" stroke="#000000" points="1223.2744,-122 1220.2744,-126 1199.2744,-126 1196.2744,-122 1094.7256,-122 1094.7256,-86 1223.2744,-86 1223.2744,-122"/>
<text text-anchor="middle" x="1159" y="-99.8" font-family="Times,serif" font-size="14.00" fill="#000000">AppRoutingModule</text>
</g>
<!-- AppRoutingModule&#45;&gt;AppModule -->
<g id="edge8" class="edge">
<title>AppRoutingModule&#45;&gt;AppModule</title>
<path fill="none" stroke="#000000" d="M1159,-122.3228C1159,-145.6602 1159,-183 1159,-183 1159,-183 728.9312,-183 728.9312,-183"/>
<polygon fill="#000000" stroke="#000000" points="728.9312,-179.5001 718.9312,-183 728.9311,-186.5001 728.9312,-179.5001"/>
</g>
<!-- RouterModule  -->
<g id="node13" class="node">
<title>RouterModule </title>
<polygon fill="#fb8072" stroke="#000000" points="1364.6523,-190 1263.3477,-190 1263.3477,-154 1364.6523,-154 1364.6523,-190"/>
<text text-anchor="middle" x="1314" y="-167.8" font-family="Times,serif" font-size="14.00" fill="#000000">RouterModule </text>
</g>
<!-- AppRoutingModule&#45;&gt;RouterModule  -->
<g id="edge12" class="edge">
<title>AppRoutingModule&#45;&gt;RouterModule </title>
<path fill="none" stroke="#000000" stroke-dasharray="5,2" d="M1223.3874,-110C1265.9734,-110 1314,-110 1314,-110 1314,-110 1314,-143.7333 1314,-143.7333"/>
<polygon fill="#000000" stroke="#000000" points="1310.5001,-143.7333 1314,-153.7333 1317.5001,-143.7333 1310.5001,-143.7333"/>
</g>
<!-- PhoneService -->
<g id="node11" class="node">
<title>PhoneService</title>
<ellipse fill="#fdb462" stroke="#000000" cx="88" cy="-104" rx="64.2649" ry="18"/>
<text text-anchor="middle" x="88" y="-99.8" font-family="Times,serif" font-size="14.00" fill="#000000">PhoneService</text>
</g>
<!-- PhoneService&#45;&gt;AppModule -->
<g id="edge10" class="edge">
<title>PhoneService&#45;&gt;AppModule</title>
<path fill="none" stroke="#000000" d="M88,-122.3228C88,-145.6602 88,-183 88,-183 88,-183 625.1128,-183 625.1128,-183"/>
<polygon fill="#000000" stroke="#000000" points="625.1128,-186.5001 635.1128,-183 625.1127,-179.5001 625.1128,-186.5001"/>
</g>
<!-- RouterModule.forRoot(args) -->
<g id="node12" class="node">
<title>RouterModule.forRoot(args)</title>
<polygon fill="#8dd3c7" stroke="#000000" points="1566.8419,-190 1563.8419,-194 1542.8419,-194 1539.8419,-190 1389.1581,-190 1389.1581,-154 1566.8419,-154 1566.8419,-190"/>
<text text-anchor="middle" x="1478" y="-167.8" font-family="Times,serif" font-size="14.00" fill="#000000">RouterModule.forRoot(args)</text>
</g>
<!-- RouterModule.forRoot(args)&#45;&gt;AppRoutingModule -->
<g id="edge11" class="edge">
<title>RouterModule.forRoot(args)&#45;&gt;AppRoutingModule</title>
<path fill="none" stroke="#000000" d="M1478,-153.7079C1478,-131.7943 1478,-98 1478,-98 1478,-98 1233.5544,-98 1233.5544,-98"/>
<polygon fill="#000000" stroke="#000000" points="1233.5544,-94.5001 1223.5544,-98 1233.5544,-101.5001 1233.5544,-94.5001"/>
</g>
</g>
</svg>
