<?xml version="1.0" encoding="UTF-8" standalone="no"?>
<!DOCTYPE svg PUBLIC "-//W3C//DTD SVG 1.1//EN"
 "http://www.w3.org/Graphics/SVG/1.1/DTD/svg11.dtd">
<!-- Generated by graphviz version 2.40.1 (20161225.0304)
 -->
<!-- Title: dependencies Pages: 1 -->
<svg width="1255pt" height="284pt"
 viewBox="0.00 0.00 1255.00 284.00" xmlns="http://www.w3.org/2000/svg" xmlns:xlink="http://www.w3.org/1999/xlink">
<g id="graph0" class="graph" transform="scale(1 1) rotate(0) translate(4 280)">
<title>dependencies</title>
<polygon fill="#ffffff" stroke="transparent" points="-4,4 -4,-280 1251,-280 1251,4 -4,4"/>
<text text-anchor="start" x="602.5091" y="-42.4" font-family="sans-serif" font-weight="bold" font-size="14.00" fill="#000000">Legend</text>
<polygon fill="#ffffb3" stroke="transparent" points="389.5,-10 389.5,-30 409.5,-30 409.5,-10 389.5,-10"/>
<text text-anchor="start" x="413.129" y="-15.4" font-family="sans-serif" font-size="14.00" fill="#000000"> &#160;Declarations</text>
<polygon fill="#8dd3c7" stroke="transparent" points="502.5,-10 502.5,-30 522.5,-30 522.5,-10 502.5,-10"/>
<text text-anchor="start" x="526.2251" y="-15.4" font-family="sans-serif" font-size="14.00" fill="#000000"> &#160;Module</text>
<polygon fill="#80b1d3" stroke="transparent" points="588.5,-10 588.5,-30 608.5,-30 608.5,-10 588.5,-10"/>
<text text-anchor="start" x="612.2812" y="-15.4" font-family="sans-serif" font-size="14.00" fill="#000000"> &#160;Bootstrap</text>
<polygon fill="#fdb462" stroke="transparent" points="685.5,-10 685.5,-30 705.5,-30 705.5,-10 685.5,-10"/>
<text text-anchor="start" x="709.1732" y="-15.4" font-family="sans-serif" font-size="14.00" fill="#000000"> &#160;Providers</text>
<polygon fill="#fb8072" stroke="transparent" points="781.5,-10 781.5,-30 801.5,-30 801.5,-10 781.5,-10"/>
<text text-anchor="start" x="805.2258" y="-15.4" font-family="sans-serif" font-size="14.00" fill="#000000"> &#160;Exports</text>
<g id="clust1" class="cluster">
<title>cluster_AppModule</title>
<polygon fill="none" stroke="#000000" stroke-dasharray="1,5" points="8,-70 8,-268 1239,-268 1239,-70 8,-70"/>
</g>
<g id="clust2" class="cluster">
<title>cluster_AppModule_declarations</title>
<polygon fill="none" stroke="#000000" points="661,-78 661,-130 1231,-130 1231,-78 661,-78"/>
</g>
<g id="clust7" class="cluster">
<title>cluster_AppModule_imports</title>
<polygon fill="none" stroke="#000000" points="168,-78 168,-130 653,-130 653,-78 168,-78"/>
</g>
<g id="clust9" class="cluster">
<title>cluster_AppModule_bootstrap</title>
<polygon fill="none" stroke="#000000" points="530,-208 530,-260 654,-260 654,-208 530,-208"/>
</g>
<g id="clust10" class="cluster">
<title>cluster_AppModule_providers</title>
<polygon fill="none" stroke="#000000" points="16,-78 16,-130 160,-130 160,-78 16,-78"/>
</g>
<!-- AppComponent -->
<g id="node1" class="node">
<title>AppComponent</title>
<polygon fill="#ffffb3" stroke="#000000" points="1222.9399,-122 1117.0601,-122 1117.0601,-86 1222.9399,-86 1222.9399,-122"/>
<text text-anchor="middle" x="1170" y="-99.8" font-family="Times,serif" font-size="14.00" fill="#000000">AppComponent</text>
</g>
<!-- AppModule -->
<g id="node5" class="node">
<title>AppModule</title>
<polygon fill="#8dd3c7" stroke="#000000" points="633.6571,-187 630.6571,-191 609.6571,-191 606.6571,-187 550.3429,-187 550.3429,-151 633.6571,-151 633.6571,-187"/>
<text text-anchor="middle" x="592" y="-164.8" font-family="Times,serif" font-size="14.00" fill="#000000">AppModule</text>
</g>
<!-- AppComponent&#45;&gt;AppModule -->
<g id="edge1" class="edge">
<title>AppComponent&#45;&gt;AppModule</title>
<path fill="none" stroke="#000000" d="M1170,-122.0109C1170,-144.4852 1170,-180 1170,-180 1170,-180 644.0339,-180 644.0339,-180"/>
<polygon fill="#000000" stroke="#000000" points="644.034,-176.5001 634.0339,-180 644.0339,-183.5001 644.034,-176.5001"/>
</g>
<!-- PhoneListComponent -->
<g id="node2" class="node">
<title>PhoneListComponent</title>
<polygon fill="#ffffb3" stroke="#000000" points="1099.108,-122 960.892,-122 960.892,-86 1099.108,-86 1099.108,-122"/>
<text text-anchor="middle" x="1030" y="-99.8" font-family="Times,serif" font-size="14.00" fill="#000000">PhoneListComponent</text>
</g>
<!-- PhoneListComponent&#45;&gt;AppModule -->
<g id="edge2" class="edge">
<title>PhoneListComponent&#45;&gt;AppModule</title>
<path fill="none" stroke="#000000" d="M1030,-122.1289C1030,-142.5724 1030,-173 1030,-173 1030,-173 643.9973,-173 643.9973,-173"/>
<polygon fill="#000000" stroke="#000000" points="643.9973,-169.5001 633.9973,-173 643.9972,-176.5001 643.9973,-169.5001"/>
</g>
<!-- PhoneDetailComponent -->
<g id="node3" class="node">
<title>PhoneDetailComponent</title>
<polygon fill="#ffffb3" stroke="#000000" points="943.0379,-122 792.9621,-122 792.9621,-86 943.0379,-86 943.0379,-122"/>
<text text-anchor="middle" x="868" y="-99.8" font-family="Times,serif" font-size="14.00" fill="#000000">PhoneDetailComponent</text>
</g>
<!-- PhoneDetailComponent&#45;&gt;AppModule -->
<g id="edge3" class="edge">
<title>PhoneDetailComponent&#45;&gt;AppModule</title>
<path fill="none" stroke="#000000" d="M868,-122.2667C868,-140.5552 868,-166 868,-166 868,-166 643.9185,-166 643.9185,-166"/>
<polygon fill="#000000" stroke="#000000" points="643.9185,-162.5001 633.9185,-166 643.9184,-169.5001 643.9185,-162.5001"/>
</g>
<!-- CheckmarkPipe -->
<g id="node4" class="node">
<title>CheckmarkPipe</title>
<polygon fill="#ffffb3" stroke="#000000" points="774.9202,-122 669.0798,-122 669.0798,-86 774.9202,-86 774.9202,-122"/>
<text text-anchor="middle" x="722" y="-99.8" font-family="Times,serif" font-size="14.00" fill="#000000">CheckmarkPipe</text>
</g>
<!-- CheckmarkPipe&#45;&gt;AppModule -->
<g id="edge4" class="edge">
<title>CheckmarkPipe&#45;&gt;AppModule</title>
<path fill="none" stroke="#000000" d="M722,-122.0091C722,-138.0494 722,-159 722,-159 722,-159 643.8484,-159 643.8484,-159"/>
<polygon fill="#000000" stroke="#000000" points="643.8484,-155.5001 633.8484,-159 643.8484,-162.5001 643.8484,-155.5001"/>
</g>
<!-- AppComponent  -->
<g id="node10" class="node">
<title>AppComponent </title>
<polygon fill="#80b1d3" stroke="#000000" points="646.439,-252 537.561,-252 537.561,-216 646.439,-216 646.439,-252"/>
<text text-anchor="middle" x="592" y="-229.8" font-family="Times,serif" font-size="14.00" fill="#000000">AppComponent </text>
</g>
<!-- AppModule&#45;&gt;AppComponent  -->
<g id="edge9" class="edge">
<title>AppModule&#45;&gt;AppComponent </title>
<path fill="none" stroke="#000000" stroke-dasharray="1,5" d="M592,-187.1061C592,-187.1061 592,-205.991 592,-205.991"/>
<polygon fill="#000000" stroke="#000000" points="588.5001,-205.9909 592,-215.991 595.5001,-205.991 588.5001,-205.9909"/>
</g>
<!-- BrowserModule -->
<g id="node6" class="node">
<title>BrowserModule</title>
<polygon fill="#8dd3c7" stroke="#000000" points="645.4734,-122 642.4734,-126 621.4734,-126 618.4734,-122 538.5266,-122 538.5266,-86 645.4734,-86 645.4734,-122"/>
<text text-anchor="middle" x="592" y="-99.8" font-family="Times,serif" font-size="14.00" fill="#000000">BrowserModule</text>
</g>
<!-- BrowserModule&#45;&gt;AppModule -->
<g id="edge5" class="edge">
<title>BrowserModule&#45;&gt;AppModule</title>
<path fill="none" stroke="#000000" d="M592,-122.1061C592,-122.1061 592,-140.991 592,-140.991"/>
<polygon fill="#000000" stroke="#000000" points="588.5001,-140.9909 592,-150.991 595.5001,-140.991 588.5001,-140.9909"/>
</g>
<!-- FormsModule -->
<g id="node7" class="node">
<title>FormsModule</title>
<polygon fill="#8dd3c7" stroke="#000000" points="520.8288,-122 517.8288,-126 496.8288,-126 493.8288,-122 425.1712,-122 425.1712,-86 520.8288,-86 520.8288,-122"/>
<text text-anchor="middle" x="473" y="-99.8" font-family="Times,serif" font-size="14.00" fill="#000000">FormsModule</text>
</g>
<!-- FormsModule&#45;&gt;AppModule -->
<g id="edge6" class="edge">
<title>FormsModule&#45;&gt;AppModule</title>
<path fill="none" stroke="#000000" d="M473,-122.0091C473,-138.0494 473,-159 473,-159 473,-159 540.0451,-159 540.0451,-159"/>
<polygon fill="#000000" stroke="#000000" points="540.0451,-162.5001 550.0451,-159 540.045,-155.5001 540.0451,-162.5001"/>
</g>
<!-- HttpModule -->
<g id="node8" class="node">
<title>HttpModule</title>
<polygon fill="#8dd3c7" stroke="#000000" points="407.4387,-122 404.4387,-126 383.4387,-126 380.4387,-122 322.5613,-122 322.5613,-86 407.4387,-86 407.4387,-122"/>
<text text-anchor="middle" x="365" y="-99.8" font-family="Times,serif" font-size="14.00" fill="#000000">HttpModule</text>
</g>
<!-- HttpModule&#45;&gt;AppModule -->
<g id="edge7" class="edge">
<title>HttpModule&#45;&gt;AppModule</title>
<path fill="none" stroke="#000000" d="M365,-122.2667C365,-140.5552 365,-166 365,-166 365,-166 540.1002,-166 540.1002,-166"/>
<polygon fill="#000000" stroke="#000000" points="540.1002,-169.5001 550.1002,-166 540.1001,-162.5001 540.1002,-169.5001"/>
</g>
<!-- AppRoutingModule -->
<g id="node9" class="node">
<title>AppRoutingModule</title>
<polygon fill="#8dd3c7" stroke="#000000" points="304.2744,-122 301.2744,-126 280.2744,-126 277.2744,-122 175.7256,-122 175.7256,-86 304.2744,-86 304.2744,-122"/>
<text text-anchor="middle" x="240" y="-99.8" font-family="Times,serif" font-size="14.00" fill="#000000">AppRoutingModule</text>
</g>
<!-- AppRoutingModule&#45;&gt;AppModule -->
<g id="edge8" class="edge">
<title>AppRoutingModule&#45;&gt;AppModule</title>
<path fill="none" stroke="#000000" d="M240,-122.1289C240,-142.5724 240,-173 240,-173 240,-173 540.2387,-173 540.2387,-173"/>
<polygon fill="#000000" stroke="#000000" points="540.2387,-176.5001 550.2387,-173 540.2387,-169.5001 540.2387,-176.5001"/>
</g>
<!-- PhoneService -->
<g id="node11" class="node">
<title>PhoneService</title>
<ellipse fill="#fdb462" stroke="#000000" cx="88" cy="-104" rx="64.2649" ry="18"/>
<text text-anchor="middle" x="88" y="-99.8" font-family="Times,serif" font-size="14.00" fill="#000000">PhoneService</text>
</g>
<!-- PhoneService&#45;&gt;AppModule -->
<g id="edge10" class="edge">
<title>PhoneService&#45;&gt;AppModule</title>
<path fill="none" stroke="#000000" d="M88,-122.0109C88,-144.4852 88,-180 88,-180 88,-180 540.3268,-180 540.3268,-180"/>
<polygon fill="#000000" stroke="#000000" points="540.3268,-183.5001 550.3268,-180 540.3267,-176.5001 540.3268,-183.5001"/>
</g>
</g>
</svg>
