<?xml version="1.0" encoding="UTF-8" standalone="no"?>
<!DOCTYPE svg PUBLIC "-//W3C//DTD SVG 1.1//EN"
 "http://www.w3.org/Graphics/SVG/1.1/DTD/svg11.dtd">
<!-- Generated by graphviz version 2.38.0 (20140413.2041)
 -->
<!-- Title: dependencies Pages: 1 -->
<svg width="1255pt" height="284pt"
 viewBox="0.00 0.00 1255.00 284.00" xmlns="http://www.w3.org/2000/svg" xmlns:xlink="http://www.w3.org/1999/xlink">
<g id="graph0" class="graph" transform="scale(1 1) rotate(0) translate(4 280)">
<title>dependencies</title>
<polygon fill="white" stroke="none" points="-4,4 -4,-280 1251,-280 1251,4 -4,4"/>
<text text-anchor="start" x="602.509" y="-42.4" font-family="sans-serif" font-weight="bold" font-size="14.00">Legend</text>
<polygon fill="#ffffb3" stroke="none" points="389.5,-10 389.5,-30 409.5,-30 409.5,-10 389.5,-10"/>
<text text-anchor="start" x="413.129" y="-15.4" font-family="sans-serif" font-size="14.00"> &#160;Declarations</text>
<polygon fill="#8dd3c7" stroke="none" points="502.5,-10 502.5,-30 522.5,-30 522.5,-10 502.5,-10"/>
<text text-anchor="start" x="526.225" y="-15.4" font-family="sans-serif" font-size="14.00"> &#160;Module</text>
<polygon fill="#80b1d3" stroke="none" points="588.5,-10 588.5,-30 608.5,-30 608.5,-10 588.5,-10"/>
<text text-anchor="start" x="612.281" y="-15.4" font-family="sans-serif" font-size="14.00"> &#160;Bootstrap</text>
<polygon fill="#fdb462" stroke="none" points="685.5,-10 685.5,-30 705.5,-30 705.5,-10 685.5,-10"/>
<text text-anchor="start" x="709.173" y="-15.4" font-family="sans-serif" font-size="14.00"> &#160;Providers</text>
<polygon fill="#fb8072" stroke="none" points="781.5,-10 781.5,-30 801.5,-30 801.5,-10 781.5,-10"/>
<text text-anchor="start" x="805.226" y="-15.4" font-family="sans-serif" font-size="14.00"> &#160;Exports</text>
<g id="clust1" class="cluster"><title>cluster_AppModule</title>
<polygon fill="none" stroke="black" stroke-dasharray="1,5" points="8,-70 8,-268 1239,-268 1239,-70 8,-70"/>
</g>
<g id="clust2" class="cluster"><title>cluster_AppModule_declarations</title>
<polygon fill="none" stroke="black" points="661,-78 661,-130 1231,-130 1231,-78 661,-78"/>
</g>
<g id="clust7" class="cluster"><title>cluster_AppModule_imports</title>
<polygon fill="none" stroke="black" points="168,-78 168,-130 653,-130 653,-78 168,-78"/>
</g>
<g id="clust9" class="cluster"><title>cluster_AppModule_bootstrap</title>
<polygon fill="none" stroke="black" points="530,-208 530,-260 654,-260 654,-208 530,-208"/>
</g>
<g id="clust10" class="cluster"><title>cluster_AppModule_providers</title>
<polygon fill="none" stroke="black" points="16,-78 16,-130 160,-130 160,-78 16,-78"/>
</g>
<!-- AppComponent -->
<g id="node1" class="node"><title>AppComponent</title>
<polygon fill="#ffffb3" stroke="black" points="1222.94,-122 1117.06,-122 1117.06,-86 1222.94,-86 1222.94,-122"/>
<text text-anchor="middle" x="1170" y="-99.8" font-family="Times,serif" font-size="14.00">AppComponent</text>
</g>
<!-- AppModule -->
<g id="node5" class="node"><title>AppModule</title>
<polygon fill="#8dd3c7" stroke="black" points="633.657,-187 630.657,-191 609.657,-191 606.657,-187 550.343,-187 550.343,-151 633.657,-151 633.657,-187"/>
<text text-anchor="middle" x="592" y="-164.8" font-family="Times,serif" font-size="14.00">AppModule</text>
</g>
<!-- AppComponent&#45;&gt;AppModule -->
<g id="edge1" class="edge"><title>AppComponent&#45;&gt;AppModule</title>
<path fill="none" stroke="black" d="M1170,-122.011C1170,-144.485 1170,-180 1170,-180 1170,-180 644.034,-180 644.034,-180"/>
<polygon fill="black" stroke="black" points="644.034,-176.5 634.034,-180 644.034,-183.5 644.034,-176.5"/>
</g>
<!-- PhoneListComponent -->
<g id="node2" class="node"><title>PhoneListComponent</title>
<polygon fill="#ffffb3" stroke="black" points="1099.11,-122 960.892,-122 960.892,-86 1099.11,-86 1099.11,-122"/>
<text text-anchor="middle" x="1030" y="-99.8" font-family="Times,serif" font-size="14.00">PhoneListComponent</text>
</g>
<!-- PhoneListComponent&#45;&gt;AppModule -->
<g id="edge2" class="edge"><title>PhoneListComponent&#45;&gt;AppModule</title>
<path fill="none" stroke="black" d="M1030,-122.129C1030,-142.572 1030,-173 1030,-173 1030,-173 643.997,-173 643.997,-173"/>
<polygon fill="black" stroke="black" points="643.997,-169.5 633.997,-173 643.997,-176.5 643.997,-169.5"/>
</g>
<!-- PhoneDetailComponent -->
<g id="node3" class="node"><title>PhoneDetailComponent</title>
<polygon fill="#ffffb3" stroke="black" points="943.038,-122 792.962,-122 792.962,-86 943.038,-86 943.038,-122"/>
<text text-anchor="middle" x="868" y="-99.8" font-family="Times,serif" font-size="14.00">PhoneDetailComponent</text>
</g>
<!-- PhoneDetailComponent&#45;&gt;AppModule -->
<g id="edge3" class="edge"><title>PhoneDetailComponent&#45;&gt;AppModule</title>
<path fill="none" stroke="black" d="M868,-122.267C868,-140.555 868,-166 868,-166 868,-166 643.918,-166 643.918,-166"/>
<polygon fill="black" stroke="black" points="643.918,-162.5 633.918,-166 643.918,-169.5 643.918,-162.5"/>
</g>
<!-- CheckmarkPipe -->
<g id="node4" class="node"><title>CheckmarkPipe</title>
<polygon fill="#ffffb3" stroke="black" points="774.92,-122 669.08,-122 669.08,-86 774.92,-86 774.92,-122"/>
<text text-anchor="middle" x="722" y="-99.8" font-family="Times,serif" font-size="14.00">CheckmarkPipe</text>
</g>
<!-- CheckmarkPipe&#45;&gt;AppModule -->
<g id="edge4" class="edge"><title>CheckmarkPipe&#45;&gt;AppModule</title>
<path fill="none" stroke="black" d="M722,-122.009C722,-138.049 722,-159 722,-159 722,-159 643.848,-159 643.848,-159"/>
<polygon fill="black" stroke="black" points="643.848,-155.5 633.848,-159 643.848,-162.5 643.848,-155.5"/>
</g>
<!-- AppComponent  -->
<g id="node10" class="node"><title>AppComponent </title>
<polygon fill="#80b1d3" stroke="black" points="646.439,-252 537.561,-252 537.561,-216 646.439,-216 646.439,-252"/>
<text text-anchor="middle" x="592" y="-229.8" font-family="Times,serif" font-size="14.00">AppComponent </text>
</g>
<!-- AppModule&#45;&gt;AppComponent  -->
<g id="edge9" class="edge"><title>AppModule&#45;&gt;AppComponent </title>
<path fill="none" stroke="black" stroke-dasharray="1,5" d="M592,-187.106C592,-187.106 592,-205.991 592,-205.991"/>
<polygon fill="black" stroke="black" points="588.5,-205.991 592,-215.991 595.5,-205.991 588.5,-205.991"/>
</g>
<!-- BrowserModule -->
<g id="node6" class="node"><title>BrowserModule</title>
<polygon fill="#8dd3c7" stroke="black" points="645.473,-122 642.473,-126 621.473,-126 618.473,-122 538.527,-122 538.527,-86 645.473,-86 645.473,-122"/>
<text text-anchor="middle" x="592" y="-99.8" font-family="Times,serif" font-size="14.00">BrowserModule</text>
</g>
<!-- BrowserModule&#45;&gt;AppModule -->
<g id="edge5" class="edge"><title>BrowserModule&#45;&gt;AppModule</title>
<path fill="none" stroke="black" d="M592,-122.106C592,-122.106 592,-140.991 592,-140.991"/>
<polygon fill="black" stroke="black" points="588.5,-140.991 592,-150.991 595.5,-140.991 588.5,-140.991"/>
</g>
<!-- FormsModule -->
<g id="node7" class="node"><title>FormsModule</title>
<polygon fill="#8dd3c7" stroke="black" points="520.829,-122 517.829,-126 496.829,-126 493.829,-122 425.171,-122 425.171,-86 520.829,-86 520.829,-122"/>
<text text-anchor="middle" x="473" y="-99.8" font-family="Times,serif" font-size="14.00">FormsModule</text>
</g>
<!-- FormsModule&#45;&gt;AppModule -->
<g id="edge6" class="edge"><title>FormsModule&#45;&gt;AppModule</title>
<path fill="none" stroke="black" d="M473,-122.009C473,-138.049 473,-159 473,-159 473,-159 540.045,-159 540.045,-159"/>
<polygon fill="black" stroke="black" points="540.045,-162.5 550.045,-159 540.045,-155.5 540.045,-162.5"/>
</g>
<!-- HttpModule -->
<g id="node8" class="node"><title>HttpModule</title>
<polygon fill="#8dd3c7" stroke="black" points="407.439,-122 404.439,-126 383.439,-126 380.439,-122 322.561,-122 322.561,-86 407.439,-86 407.439,-122"/>
<text text-anchor="middle" x="365" y="-99.8" font-family="Times,serif" font-size="14.00">HttpModule</text>
</g>
<!-- HttpModule&#45;&gt;AppModule -->
<g id="edge7" class="edge"><title>HttpModule&#45;&gt;AppModule</title>
<path fill="none" stroke="black" d="M365,-122.267C365,-140.555 365,-166 365,-166 365,-166 540.1,-166 540.1,-166"/>
<polygon fill="black" stroke="black" points="540.1,-169.5 550.1,-166 540.1,-162.5 540.1,-169.5"/>
</g>
<!-- AppRoutingModule -->
<g id="node9" class="node"><title>AppRoutingModule</title>
<polygon fill="#8dd3c7" stroke="black" points="304.274,-122 301.274,-126 280.274,-126 277.274,-122 175.726,-122 175.726,-86 304.274,-86 304.274,-122"/>
<text text-anchor="middle" x="240" y="-99.8" font-family="Times,serif" font-size="14.00">AppRoutingModule</text>
</g>
<!-- AppRoutingModule&#45;&gt;AppModule -->
<g id="edge8" class="edge"><title>AppRoutingModule&#45;&gt;AppModule</title>
<path fill="none" stroke="black" d="M240,-122.129C240,-142.572 240,-173 240,-173 240,-173 540.239,-173 540.239,-173"/>
<polygon fill="black" stroke="black" points="540.239,-176.5 550.239,-173 540.239,-169.5 540.239,-176.5"/>
</g>
<!-- PhoneService -->
<g id="node11" class="node"><title>PhoneService</title>
<ellipse fill="#fdb462" stroke="black" cx="88" cy="-104" rx="64.2649" ry="18"/>
<text text-anchor="middle" x="88" y="-99.8" font-family="Times,serif" font-size="14.00">PhoneService</text>
</g>
<!-- PhoneService&#45;&gt;AppModule -->
<g id="edge10" class="edge"><title>PhoneService&#45;&gt;AppModule</title>
<path fill="none" stroke="black" d="M88,-122.011C88,-144.485 88,-180 88,-180 88,-180 540.327,-180 540.327,-180"/>
<polygon fill="black" stroke="black" points="540.327,-183.5 550.327,-180 540.327,-176.5 540.327,-183.5"/>
</g>
</g>
</svg>
