<?xml version="1.0" encoding="UTF-8" standalone="no"?>
<!DOCTYPE svg PUBLIC "-//W3C//DTD SVG 1.1//EN"
 "http://www.w3.org/Graphics/SVG/1.1/DTD/svg11.dtd">
<!-- Generated by graphviz version 2.38.0 (20140413.2041)
 -->
<!-- Title: dependencies Pages: 1 -->
<svg width="1326pt" height="355pt"
 viewBox="0.00 0.00 1326.00 355.00" xmlns="http://www.w3.org/2000/svg" xmlns:xlink="http://www.w3.org/1999/xlink">
<g id="graph0" class="graph" transform="scale(1 1) rotate(0) translate(4 351)">
<title>dependencies</title>
<polygon fill="white" stroke="none" points="-4,4 -4,-351 1322,-351 1322,4 -4,4"/>
<text text-anchor="start" x="638.009" y="-42.4" font-family="sans-serif" font-weight="bold" font-size="14.00">Legend</text>
<polygon fill="#ffffb3" stroke="none" points="425,-10 425,-30 445,-30 445,-10 425,-10"/>
<text text-anchor="start" x="448.629" y="-15.4" font-family="sans-serif" font-size="14.00"> &#160;Declarations</text>
<polygon fill="#8dd3c7" stroke="none" points="538,-10 538,-30 558,-30 558,-10 538,-10"/>
<text text-anchor="start" x="561.725" y="-15.4" font-family="sans-serif" font-size="14.00"> &#160;Module</text>
<polygon fill="#80b1d3" stroke="none" points="624,-10 624,-30 644,-30 644,-10 624,-10"/>
<text text-anchor="start" x="647.781" y="-15.4" font-family="sans-serif" font-size="14.00"> &#160;Bootstrap</text>
<polygon fill="#fdb462" stroke="none" points="721,-10 721,-30 741,-30 741,-10 721,-10"/>
<text text-anchor="start" x="744.673" y="-15.4" font-family="sans-serif" font-size="14.00"> &#160;Providers</text>
<polygon fill="#fb8072" stroke="none" points="817,-10 817,-30 837,-30 837,-10 817,-10"/>
<text text-anchor="start" x="840.726" y="-15.4" font-family="sans-serif" font-size="14.00"> &#160;Exports</text>
<g id="clust1" class="cluster"><title>cluster_AppRoutingModule</title>
<polygon fill="none" stroke="black" stroke-dasharray="1,5" points="8,-70 8,-271 218,-271 218,-70 8,-70"/>
</g>
<g id="clust3" class="cluster"><title>cluster_AppRoutingModule_imports</title>
<polygon fill="none" stroke="black" points="16,-78 16,-130 210,-130 210,-78 16,-78"/>
</g>
<g id="clust4" class="cluster"><title>cluster_AppRoutingModule_exports</title>
<polygon fill="none" stroke="black" points="70,-211 70,-263 188,-263 188,-211 70,-211"/>
</g>
<g id="clust7" class="cluster"><title>cluster_AppModule</title>
<polygon fill="none" stroke="black" stroke-dasharray="1,5" points="226,-138 226,-339 1310,-339 1310,-138 226,-138"/>
</g>
<g id="clust8" class="cluster"><title>cluster_AppModule_declarations</title>
<polygon fill="none" stroke="black" points="732,-146 732,-198 1302,-198 1302,-146 732,-146"/>
</g>
<g id="clust13" class="cluster"><title>cluster_AppModule_imports</title>
<polygon fill="none" stroke="black" points="386,-146 386,-198 724,-198 724,-146 386,-146"/>
</g>
<g id="clust15" class="cluster"><title>cluster_AppModule_bootstrap</title>
<polygon fill="none" stroke="black" points="601,-279 601,-331 725,-331 725,-279 601,-279"/>
</g>
<g id="clust16" class="cluster"><title>cluster_AppModule_providers</title>
<polygon fill="none" stroke="black" points="234,-146 234,-198 378,-198 378,-146 234,-146"/>
</g>
<!-- RouterModule.forRoot(args) -->
<g id="node1" class="node"><title>RouterModule.forRoot(args)</title>
<polygon fill="#8dd3c7" stroke="black" points="201.842,-122 198.842,-126 177.842,-126 174.842,-122 24.1581,-122 24.1581,-86 201.842,-86 201.842,-122"/>
<text text-anchor="middle" x="113" y="-99.8" font-family="Times,serif" font-size="14.00">RouterModule.forRoot(args)</text>
</g>
<!-- AppRoutingModule -->
<g id="node2" class="node"><title>AppRoutingModule</title>
<polygon fill="#8dd3c7" stroke="black" points="193.274,-190 190.274,-194 169.274,-194 166.274,-190 64.7256,-190 64.7256,-154 193.274,-154 193.274,-190"/>
<text text-anchor="middle" x="129" y="-167.8" font-family="Times,serif" font-size="14.00">AppRoutingModule</text>
</g>
<!-- RouterModule.forRoot(args)&#45;&gt;AppRoutingModule -->
<g id="edge1" class="edge"><title>RouterModule.forRoot(args)&#45;&gt;AppRoutingModule</title>
<path fill="none" stroke="black" d="M129,-122.223C129,-122.223 129,-143.727 129,-143.727"/>
<polygon fill="black" stroke="black" points="125.5,-143.727 129,-153.727 132.5,-143.727 125.5,-143.727"/>
</g>
<!-- RouterModule  -->
<g id="node3" class="node"><title>RouterModule </title>
<polygon fill="#fb8072" stroke="black" points="179.652,-255 78.3477,-255 78.3477,-219 179.652,-219 179.652,-255"/>
<text text-anchor="middle" x="129" y="-232.8" font-family="Times,serif" font-size="14.00">RouterModule </text>
</g>
<!-- AppRoutingModule&#45;&gt;RouterModule  -->
<g id="edge2" class="edge"><title>AppRoutingModule&#45;&gt;RouterModule </title>
<path fill="none" stroke="black" stroke-dasharray="5,2" d="M129,-190.106C129,-190.106 129,-208.991 129,-208.991"/>
<polygon fill="black" stroke="black" points="125.5,-208.991 129,-218.991 132.5,-208.991 125.5,-208.991"/>
</g>
<!-- AppModule -->
<g id="node8" class="node"><title>AppModule</title>
<polygon fill="#8dd3c7" stroke="black" points="704.657,-255 701.657,-259 680.657,-259 677.657,-255 621.343,-255 621.343,-219 704.657,-219 704.657,-255"/>
<text text-anchor="middle" x="663" y="-232.8" font-family="Times,serif" font-size="14.00">AppModule</text>
</g>
<!-- AppRoutingModule&#45;&gt;AppModule -->
<g id="edge10" class="edge"><title>AppRoutingModule&#45;&gt;AppModule</title>
<path fill="none" stroke="black" d="M186.482,-190.011C186.482,-212.485 186.482,-248 186.482,-248 186.482,-248 611.13,-248 611.13,-248"/>
<polygon fill="black" stroke="black" points="611.13,-251.5 621.13,-248 611.13,-244.5 611.13,-251.5"/>
</g>
<!-- AppComponent -->
<g id="node4" class="node"><title>AppComponent</title>
<polygon fill="#ffffb3" stroke="black" points="1293.94,-190 1188.06,-190 1188.06,-154 1293.94,-154 1293.94,-190"/>
<text text-anchor="middle" x="1241" y="-167.8" font-family="Times,serif" font-size="14.00">AppComponent</text>
</g>
<!-- AppComponent&#45;&gt;AppModule -->
<g id="edge3" class="edge"><title>AppComponent&#45;&gt;AppModule</title>
<path fill="none" stroke="black" d="M1241,-190.011C1241,-212.485 1241,-248 1241,-248 1241,-248 715.034,-248 715.034,-248"/>
<polygon fill="black" stroke="black" points="715.034,-244.5 705.034,-248 715.034,-251.5 715.034,-244.5"/>
</g>
<!-- PhoneListComponent -->
<g id="node5" class="node"><title>PhoneListComponent</title>
<polygon fill="#ffffb3" stroke="black" points="1170.11,-190 1031.89,-190 1031.89,-154 1170.11,-154 1170.11,-190"/>
<text text-anchor="middle" x="1101" y="-167.8" font-family="Times,serif" font-size="14.00">PhoneListComponent</text>
</g>
<!-- PhoneListComponent&#45;&gt;AppModule -->
<g id="edge4" class="edge"><title>PhoneListComponent&#45;&gt;AppModule</title>
<path fill="none" stroke="black" d="M1101,-190.129C1101,-210.572 1101,-241 1101,-241 1101,-241 714.997,-241 714.997,-241"/>
<polygon fill="black" stroke="black" points="714.997,-237.5 704.997,-241 714.997,-244.5 714.997,-237.5"/>
</g>
<!-- PhoneDetailComponent -->
<g id="node6" class="node"><title>PhoneDetailComponent</title>
<polygon fill="#ffffb3" stroke="black" points="1014.04,-190 863.962,-190 863.962,-154 1014.04,-154 1014.04,-190"/>
<text text-anchor="middle" x="939" y="-167.8" font-family="Times,serif" font-size="14.00">PhoneDetailComponent</text>
</g>
<!-- PhoneDetailComponent&#45;&gt;AppModule -->
<g id="edge5" class="edge"><title>PhoneDetailComponent&#45;&gt;AppModule</title>
<path fill="none" stroke="black" d="M939,-190.267C939,-208.555 939,-234 939,-234 939,-234 714.918,-234 714.918,-234"/>
<polygon fill="black" stroke="black" points="714.918,-230.5 704.918,-234 714.918,-237.5 714.918,-230.5"/>
</g>
<!-- CheckmarkPipe -->
<g id="node7" class="node"><title>CheckmarkPipe</title>
<polygon fill="#ffffb3" stroke="black" points="845.92,-190 740.08,-190 740.08,-154 845.92,-154 845.92,-190"/>
<text text-anchor="middle" x="793" y="-167.8" font-family="Times,serif" font-size="14.00">CheckmarkPipe</text>
</g>
<!-- CheckmarkPipe&#45;&gt;AppModule -->
<g id="edge6" class="edge"><title>CheckmarkPipe&#45;&gt;AppModule</title>
<path fill="none" stroke="black" d="M793,-190.009C793,-206.049 793,-227 793,-227 793,-227 714.848,-227 714.848,-227"/>
<polygon fill="black" stroke="black" points="714.848,-223.5 704.848,-227 714.848,-230.5 714.848,-223.5"/>
</g>
<!-- AppComponent  -->
<g id="node12" class="node"><title>AppComponent </title>
<polygon fill="#80b1d3" stroke="black" points="717.439,-323 608.561,-323 608.561,-287 717.439,-287 717.439,-323"/>
<text text-anchor="middle" x="663" y="-300.8" font-family="Times,serif" font-size="14.00">AppComponent </text>
</g>
<!-- AppModule&#45;&gt;AppComponent  -->
<g id="edge11" class="edge"><title>AppModule&#45;&gt;AppComponent </title>
<path fill="none" stroke="black" stroke-dasharray="1,5" d="M663,-255.223C663,-255.223 663,-276.727 663,-276.727"/>
<polygon fill="black" stroke="black" points="659.5,-276.727 663,-286.727 666.5,-276.727 659.5,-276.727"/>
</g>
<!-- BrowserModule -->
<g id="node9" class="node"><title>BrowserModule</title>
<polygon fill="#8dd3c7" stroke="black" points="716.473,-190 713.473,-194 692.473,-194 689.473,-190 609.527,-190 609.527,-154 716.473,-154 716.473,-190"/>
<text text-anchor="middle" x="663" y="-167.8" font-family="Times,serif" font-size="14.00">BrowserModule</text>
</g>
<!-- BrowserModule&#45;&gt;AppModule -->
<g id="edge7" class="edge"><title>BrowserModule&#45;&gt;AppModule</title>
<path fill="none" stroke="black" d="M663,-190.106C663,-190.106 663,-208.991 663,-208.991"/>
<polygon fill="black" stroke="black" points="659.5,-208.991 663,-218.991 666.5,-208.991 659.5,-208.991"/>
</g>
<!-- FormsModule -->
<g id="node10" class="node"><title>FormsModule</title>
<polygon fill="#8dd3c7" stroke="black" points="591.829,-190 588.829,-194 567.829,-194 564.829,-190 496.171,-190 496.171,-154 591.829,-154 591.829,-190"/>
<text text-anchor="middle" x="544" y="-167.8" font-family="Times,serif" font-size="14.00">FormsModule</text>
</g>
<!-- FormsModule&#45;&gt;AppModule -->
<g id="edge8" class="edge"><title>FormsModule&#45;&gt;AppModule</title>
<path fill="none" stroke="black" d="M544,-190.009C544,-206.049 544,-227 544,-227 544,-227 611.045,-227 611.045,-227"/>
<polygon fill="black" stroke="black" points="611.045,-230.5 621.045,-227 611.045,-223.5 611.045,-230.5"/>
</g>
<!-- HttpModule -->
<g id="node11" class="node"><title>HttpModule</title>
<polygon fill="#8dd3c7" stroke="black" points="478.439,-190 475.439,-194 454.439,-194 451.439,-190 393.561,-190 393.561,-154 478.439,-154 478.439,-190"/>
<text text-anchor="middle" x="436" y="-167.8" font-family="Times,serif" font-size="14.00">HttpModule</text>
</g>
<!-- HttpModule&#45;&gt;AppModule -->
<g id="edge9" class="edge"><title>HttpModule&#45;&gt;AppModule</title>
<path fill="none" stroke="black" d="M436,-190.267C436,-208.555 436,-234 436,-234 436,-234 611.1,-234 611.1,-234"/>
<polygon fill="black" stroke="black" points="611.1,-237.5 621.1,-234 611.1,-230.5 611.1,-237.5"/>
</g>
<!-- PhoneService -->
<g id="node13" class="node"><title>PhoneService</title>
<ellipse fill="#fdb462" stroke="black" cx="306" cy="-172" rx="64.2649" ry="18"/>
<text text-anchor="middle" x="306" y="-167.8" font-family="Times,serif" font-size="14.00">PhoneService</text>
</g>
<!-- PhoneService&#45;&gt;AppModule -->
<g id="edge12" class="edge"><title>PhoneService&#45;&gt;AppModule</title>
<path fill="none" stroke="black" d="M306,-190.129C306,-210.572 306,-241 306,-241 306,-241 610.998,-241 610.998,-241"/>
<polygon fill="black" stroke="black" points="610.998,-244.5 620.998,-241 610.998,-237.5 610.998,-244.5"/>
</g>
</g>
</svg>
